<svg version="1.1" id="Layer_1" xmlns="http://www.w3.org/2000/svg" x="0" y="0" viewBox="0 0 1091 188.8" xml:space="preserve"><style>.st0{fill:#333d45}</style><path class="st0" d="M46.7 27L0 53.9v107.9l46.7 27 46.7-27-46.7-27zM93.4 107.9l46.8 26.9V27L93.4 0z"/><g><path class="st0" d="M787.1 164.1l50.8-97h-24.2l-27.1 54.4-27.1-54.4h-24.2l50.8 97h1zm-236.3-13v10.7H571V27.3h-21V77c-7.6-7.8-17.9-12.3-30.2-12.3-26.4 0-46.8 21.7-46.8 49.7s20.4 49.7 46.8 49.7c12.8 0 23.4-4.7 31-13M984.6 124c14.1 4.9 17 7.9 17 12.3 0 5.4-4.7 8.3-13.4 8.3-10.7 0-17.7-5.4-21.7-13.2l-17.2 12.1c7.6 12.8 21.3 20.6 38.3 20.6 20.6 0 35.6-11.6 35.6-28.5 0-14.5-9.4-23.8-29.4-30.5l-3.8-1.3c-11.9-4-14.8-7.4-14.8-11.6 0-4.9 4.5-7.9 12.1-7.9 7.2 0 12.3 3.1 17.5 10.3l16.6-11.6c-8.7-12.6-20.2-18.2-34.3-18.2-19.9 0-33.4 11.6-33.4 28 0 13.9 8.5 23.5 27.3 30l3.6 1.2zm-641 21.8l-14.3-14.5c-6.5 8.1-15.5 13.2-26.4 13.2-14.5 0-25.1-9-28.4-21.9h74.4v-8.3c0-28.4-20.8-49.7-48.2-49.7-28 0-48.4 21.3-48.4 49.7s21.1 49.7 50.6 49.7c17.6.1 32-7.7 40.7-18.2m587.7 0L917 131.3c-6.5 8.1-15.5 13.2-26.4 13.2-14.5 0-25.1-9-28.4-21.9h74.4v-8.3c0-28.4-20.8-49.7-48.2-49.7-28 0-48.4 21.3-48.4 49.7s21.1 49.7 50.6 49.7c17.6.1 32-7.7 40.7-18.2m-542.5-38.6c0-13.2 9.9-22.6 22.9-22.6 12.8 0 21.3 9.4 21.3 22.6v54.6h21v-55.1c0-25.1-15.2-41.9-37.2-41.9-11.9 0-21.9 4.9-28.7 13.4v-11h-20.2v94.7h21l-.1-54.7zm274.7 0c0-13.2 9.9-22.6 22.9-22.6 12.8 0 21.3 9.4 21.3 22.6v54.6h21v-55.1c0-25.1-15.2-41.9-37.2-41.9-11.9 0-21.9 4.9-28.7 13.4v-11h-20.2v94.7h21l-.1-54.7zm-140.9 37c-16.3 0-28-12.8-28-29.8s11.7-29.8 28-29.8c16.1 0 28 12.8 28 29.8s-11.9 29.8-28 29.8m-221.8-60c12.5 0 22.2 7.9 25.7 20.1H275c3.4-12.1 13.1-20.1 25.8-20.1m587.7 0c12.5 0 22.2 7.9 25.7 20.1h-51.6c3.5-12.1 13.2-20.1 25.9-20.1m-292.2 77.5h21V67h-21v94.7zm452.4-24.7c0 18.4 10.7 27.1 28 27.1 6.1 0 11.7-1.3 14.8-2.9v-19.9c-2.7 1.6-6.9 2.9-10.8 2.9-6.9 0-10.8-3.3-10.8-10.1v-49h21.1V67h-21.1V38.6l-21.1 12.8v15.5h-13.2V85h13.2l-.1 52zm-838.4 24.7h21.1V27.3h-21.1v134.4zM606.8 52.6c7.8 0 13.5-5.8 13.5-13.5 0-7.8-6-13.5-13.5-13.5-7.6 0-13.5 5.8-13.5 13.5s5.7 13.5 13.5 13.5"/></g></svg>